<?xml version="1.0" encoding="utf-8"?>
<!-- Generator: Adobe Illustrator 16.2.1, SVG Export Plug-In . SVG Version: 6.00 Build 0)  -->
<!DOCTYPE svg PUBLIC "-//W3C//DTD SVG 1.1//EN" "http://www.w3.org/Graphics/SVG/1.1/DTD/svg11.dtd">
<svg version="1.1" id="Layer_1" xmlns="http://www.w3.org/2000/svg" xmlns:xlink="http://www.w3.org/1999/xlink" x="0px" y="0px"
	 width="948.008px" height="233.457px" viewBox="0 0 948.008 233.457" enable-background="new 0 0 948.008 233.457"
	 xml:space="preserve">
<g>
	<g>
		<path d="M494.713,63.471h13.752v31.846h0.242c0.965-1.527,2.129-2.895,3.498-4.102c1.366-1.205,2.874-2.23,4.523-3.076
			c1.646-0.844,3.377-1.486,5.187-1.93c1.81-0.441,3.599-0.664,5.368-0.664c4.904,0,9.187,0.865,12.848,2.594
			c3.658,1.73,6.694,4.102,9.107,7.117c2.412,3.016,4.221,6.535,5.428,10.555c1.206,4.023,1.81,8.324,1.81,12.908
			c0,4.182-0.543,8.244-1.629,12.184c-1.085,3.941-2.735,7.418-4.946,10.436c-2.212,3.016-5.006,5.428-8.383,7.236
			c-3.378,1.811-7.358,2.715-11.942,2.715c-2.093,0-4.203-0.141-6.333-0.422c-2.132-0.283-4.162-0.826-6.092-1.629
			s-3.68-1.85-5.248-3.137c-1.567-1.285-2.875-2.975-3.92-5.066h-0.241v8.564h-13.028V63.471z M542.724,118.477
			c0-2.812-0.362-5.549-1.085-8.201c-0.725-2.654-1.811-5.008-3.258-7.057c-1.447-2.051-3.257-3.699-5.428-4.947
			c-2.172-1.246-4.666-1.869-7.479-1.869c-5.79,0-10.153,2.012-13.088,6.031c-2.937,4.021-4.403,9.369-4.403,16.043
			c0,3.137,0.381,6.053,1.146,8.746c0.764,2.695,1.909,5.006,3.438,6.938c1.527,1.93,3.357,3.457,5.488,4.584
			s4.604,1.688,7.419,1.688c3.136,0,5.79-0.643,7.962-1.93c2.171-1.285,3.96-2.955,5.367-5.006c1.406-2.051,2.413-4.383,3.016-6.996
			C542.422,123.887,542.724,121.213,542.724,118.477z"/>
		<path d="M568.416,63.471h13.752V149.6h-13.752V63.471z"/>
		<path d="M597.488,63.471h13.751v13.027h-13.751V63.471z M597.488,87.234h13.751V149.6h-13.751V87.234z"/>
		<path d="M626.197,87.234h13.027v8.686h0.362c1.044-1.527,2.171-2.936,3.378-4.223c1.206-1.285,2.552-2.371,4.041-3.256
			c1.486-0.885,3.196-1.588,5.127-2.111c1.93-0.523,4.141-0.785,6.635-0.785c3.778,0,7.297,0.846,10.555,2.533
			c3.257,1.689,5.567,4.305,6.936,7.842c2.332-3.215,5.025-5.748,8.082-7.6c3.056-1.85,6.877-2.775,11.461-2.775
			c6.592,0,11.719,1.609,15.379,4.826c3.658,3.217,5.488,8.605,5.488,16.164V149.6h-13.75v-36.43c0-2.492-0.082-4.766-0.242-6.816
			c-0.162-2.051-0.623-3.818-1.387-5.307c-0.766-1.488-1.912-2.633-3.438-3.438c-1.529-0.805-3.619-1.207-6.273-1.207
			c-4.665,0-8.043,1.447-10.133,4.342c-2.092,2.896-3.137,6.998-3.137,12.305V149.6h-13.752v-40.049
			c0-4.342-0.783-7.619-2.352-9.832c-1.568-2.211-4.444-3.316-8.625-3.316c-1.77,0-3.479,0.361-5.127,1.086
			c-1.648,0.723-3.097,1.77-4.342,3.137c-1.248,1.367-2.253,3.057-3.017,5.066c-0.765,2.01-1.146,4.303-1.146,6.875V149.6h-13.752
			V87.234z"/>
		<path d="M731.506,87.234h13.028v8.443h0.241c1.93-3.619,4.623-6.211,8.082-7.779c3.456-1.568,7.196-2.354,11.218-2.354
			c4.905,0,9.188,0.865,12.848,2.594c3.658,1.73,6.694,4.102,9.107,7.117c2.412,3.016,4.222,6.535,5.428,10.555
			c1.207,4.023,1.81,8.324,1.81,12.908c0,4.182-0.543,8.244-1.628,12.184c-1.086,3.941-2.735,7.418-4.946,10.436
			c-2.213,3.016-5.006,5.428-8.384,7.236c-3.377,1.811-7.358,2.715-11.942,2.715c-2.011,0-4.021-0.182-6.031-0.543
			c-2.011-0.361-3.941-0.945-5.79-1.75c-1.851-0.803-3.559-1.828-5.127-3.076c-1.567-1.244-2.876-2.713-3.92-4.402h-0.241v31.123
			h-13.752V87.234z M779.517,118.477c0-2.812-0.362-5.549-1.086-8.201c-0.724-2.654-1.81-5.008-3.257-7.057
			c-1.448-2.051-3.257-3.699-5.429-4.947c-2.171-1.246-4.665-1.869-7.479-1.869c-5.791,0-10.154,2.012-13.089,6.031
			c-2.937,4.021-4.402,9.369-4.402,16.043c0,3.137,0.381,6.053,1.146,8.746c0.764,2.695,1.909,5.006,3.438,6.938
			c1.526,1.93,3.356,3.457,5.488,4.584c2.13,1.127,4.603,1.688,7.419,1.688c3.136,0,5.79-0.643,7.961-1.93
			c2.172-1.285,3.96-2.955,5.368-5.006c1.406-2.051,2.413-4.383,3.016-6.996C779.215,123.887,779.517,121.213,779.517,118.477z"/>
	</g>
	<g>
		<path d="M821.23,63.471V149.6h-8.203V63.471H821.23z"/>
		<path d="M864.016,61.66h6.151l-36.792,89.629h-6.393L864.016,61.66z"/>
		<path d="M869.358,89.525c1.688-5.387,4.222-10.15,7.6-14.293c3.377-4.143,7.618-7.438,12.727-9.893
			c5.105-2.451,11.037-3.68,17.792-3.68c6.756,0,12.666,1.229,17.732,3.68c5.066,2.455,9.289,5.75,12.666,9.893
			c3.378,4.143,5.911,8.906,7.6,14.293c1.689,5.391,2.533,11.059,2.533,17.01c0,5.953-0.844,11.621-2.533,17.01
			c-1.688,5.389-4.222,10.133-7.6,14.234c-3.377,4.1-7.6,7.379-12.666,9.83c-5.066,2.453-10.977,3.68-17.732,3.68
			c-6.755,0-12.687-1.227-17.792-3.68c-5.108-2.451-9.35-5.73-12.727-9.83c-3.378-4.102-5.911-8.846-7.6-14.234
			c-1.689-5.389-2.533-11.057-2.533-17.01C866.825,100.584,867.669,94.916,869.358,89.525z M876.897,120.348
			c1.246,4.545,3.176,8.605,5.79,12.184c2.612,3.578,5.972,6.453,10.072,8.625c4.102,2.172,9.006,3.256,14.717,3.256
			c5.71,0,10.595-1.084,14.657-3.256c4.06-2.172,7.397-5.047,10.012-8.625c2.612-3.578,4.543-7.639,5.79-12.184
			c1.246-4.543,1.87-9.148,1.87-13.812c0-4.744-0.624-9.367-1.87-13.873c-1.247-4.502-3.178-8.543-5.79-12.123
			c-2.614-3.576-5.952-6.453-10.012-8.625c-4.062-2.172-8.947-3.256-14.657-3.256c-5.711,0-10.615,1.084-14.717,3.256
			c-4.101,2.172-7.46,5.049-10.072,8.625c-2.614,3.58-4.544,7.621-5.79,12.123c-1.248,4.506-1.87,9.129-1.87,13.873
			C875.027,111.199,875.649,115.805,876.897,120.348z"/>
	</g>
</g>
<path d="M461.989,92.354C433.421,33.662,365.66,0,276.083,0h-0.004c-48.04,0.001-99.139,10.074-143.89,28.361
	c-9.138,3.733-17.908,7.755-26.286,12.044L64.46,19.399c-1.848-0.938-4.017-1.011-5.924-0.203L4.291,42.175
	c-1.733,0.734-3.101,2.132-3.795,3.882s-0.659,3.704,0.099,5.427l23.762,54.056c-0.956,1.257-1.898,2.518-2.812,3.79
	c-6.965,9.698-6.382,22.803,1.184,31.845L11.64,188.51c-0.73,3.119,0.992,6.291,4.008,7.377l49.968,17.982
	c0.696,0.25,1.419,0.373,2.136,0.373c1.568,0,3.109-0.586,4.296-1.688l28.936-26.881c4.892,1.574,9.621,2.965,14.088,4.186
	c15.976,4.365,32.947,7.836,50.54,10.373l10.525,22.965c2.865,6.252,9.111,10.26,15.989,10.26h123.122
	c6.478,0,12.431-3.561,15.495-9.266l17.52-32.619c6.352-1.727,12.54-3.594,18.504-5.635c20.838-7.127,39.119-16.137,54.334-26.781
	c17.249-12.066,30.71-26.325,40.01-42.38C465.447,109.288,465.776,100.134,461.989,92.354z M446.581,103.022
	C430.093,120.706,325.876-20.65,60.871,85.339C315.323-64.036,463.068,85.339,446.581,103.022z"/>
<g>
</g>
<g>
</g>
<g>
</g>
<g>
</g>
<g>
</g>
<g>
</g>
</svg>
