<?xml version="1.0" encoding="utf-8"?>
<!-- Generator: Adobe Illustrator 16.2.1, SVG Export Plug-In . SVG Version: 6.00 Build 0)  -->
<!DOCTYPE svg PUBLIC "-//W3C//DTD SVG 1.1//EN" "http://www.w3.org/Graphics/SVG/1.1/DTD/svg11.dtd">
<svg version="1.1" id="Layer_1" xmlns="http://www.w3.org/2000/svg" xmlns:xlink="http://www.w3.org/1999/xlink" x="0px" y="0px"
	 width="725.697px" height="115.871px" viewBox="0 0 725.697 115.871" enable-background="new 0 0 725.697 115.871"
	 xml:space="preserve">
<g>
	<g>
		<path d="M272.402,6.678h13.752v31.846h0.242c0.965-1.527,2.129-2.895,3.498-4.102c1.366-1.205,2.874-2.23,4.523-3.076
			c1.646-0.844,3.377-1.486,5.187-1.93c1.81-0.441,3.599-0.664,5.368-0.664c4.904,0,9.187,0.865,12.848,2.594
			c3.658,1.73,6.694,4.102,9.107,7.117c2.412,3.016,4.221,6.535,5.428,10.555c1.206,4.023,1.81,8.324,1.81,12.908
			c0,4.182-0.543,8.244-1.629,12.184c-1.085,3.941-2.735,7.418-4.946,10.436c-2.212,3.016-5.006,5.428-8.383,7.236
			c-3.378,1.811-7.358,2.715-11.942,2.715c-2.093,0-4.203-0.141-6.333-0.422c-2.132-0.283-4.162-0.826-6.092-1.629
			s-3.68-1.85-5.248-3.137c-1.567-1.285-2.875-2.975-3.92-5.066h-0.241v8.564h-13.028V6.678z M320.413,61.684
			c0-2.812-0.362-5.549-1.085-8.201c-0.725-2.654-1.811-5.008-3.258-7.057c-1.447-2.051-3.257-3.699-5.428-4.947
			c-2.172-1.246-4.666-1.869-7.479-1.869c-5.79,0-10.153,2.012-13.088,6.031c-2.937,4.021-4.403,9.369-4.403,16.043
			c0,3.137,0.381,6.053,1.146,8.746c0.764,2.695,1.909,5.006,3.438,6.938c1.527,1.93,3.357,3.457,5.488,4.584
			s4.604,1.688,7.419,1.688c3.136,0,5.79-0.643,7.962-1.93c2.171-1.285,3.96-2.955,5.367-5.006c1.406-2.051,2.413-4.383,3.016-6.996
			C320.111,67.094,320.413,64.42,320.413,61.684z"/>
		<path d="M346.105,6.678h13.752v86.129h-13.752V6.678z"/>
		<path d="M375.178,6.678h13.751v13.027h-13.751V6.678z M375.178,30.441h13.751v62.365h-13.751V30.441z"/>
		<path d="M403.887,30.441h13.027v8.686h0.362c1.044-1.527,2.171-2.936,3.378-4.223c1.206-1.285,2.552-2.371,4.041-3.256
			c1.486-0.885,3.196-1.588,5.127-2.111c1.93-0.523,4.141-0.785,6.635-0.785c3.778,0,7.297,0.846,10.555,2.533
			c3.257,1.689,5.567,4.305,6.936,7.842c2.332-3.215,5.025-5.748,8.082-7.6c3.056-1.85,6.877-2.775,11.461-2.775
			c6.592,0,11.719,1.609,15.379,4.826c3.658,3.217,5.488,8.605,5.488,16.164v43.064h-13.75v-36.43c0-2.492-0.082-4.766-0.242-6.816
			c-0.162-2.051-0.623-3.818-1.387-5.307c-0.766-1.488-1.912-2.633-3.438-3.438c-1.529-0.805-3.619-1.207-6.273-1.207
			c-4.665,0-8.043,1.447-10.133,4.342c-2.092,2.896-3.137,6.998-3.137,12.305v36.551h-13.752V52.758
			c0-4.342-0.783-7.619-2.352-9.832c-1.568-2.211-4.444-3.316-8.625-3.316c-1.77,0-3.479,0.361-5.127,1.086
			c-1.648,0.723-3.097,1.77-4.342,3.137c-1.248,1.367-2.253,3.057-3.017,5.066c-0.765,2.01-1.146,4.303-1.146,6.875v37.033h-13.752
			V30.441z"/>
		<path d="M509.195,30.441h13.028v8.443h0.241c1.93-3.619,4.623-6.211,8.082-7.779c3.456-1.568,7.196-2.354,11.218-2.354
			c4.905,0,9.188,0.865,12.848,2.594c3.658,1.73,6.694,4.102,9.107,7.117c2.412,3.016,4.222,6.535,5.428,10.555
			c1.207,4.023,1.81,8.324,1.81,12.908c0,4.182-0.543,8.244-1.628,12.184c-1.086,3.941-2.735,7.418-4.946,10.436
			c-2.213,3.016-5.006,5.428-8.384,7.236c-3.377,1.811-7.358,2.715-11.942,2.715c-2.011,0-4.021-0.182-6.031-0.543
			c-2.011-0.361-3.941-0.945-5.79-1.75c-1.851-0.803-3.559-1.828-5.127-3.076c-1.567-1.244-2.876-2.713-3.92-4.402h-0.241v31.123
			h-13.752V30.441z M557.206,61.684c0-2.812-0.362-5.549-1.086-8.201c-0.724-2.654-1.81-5.008-3.257-7.057
			c-1.448-2.051-3.257-3.699-5.429-4.947c-2.171-1.246-4.665-1.869-7.479-1.869c-5.791,0-10.154,2.012-13.089,6.031
			c-2.937,4.021-4.402,9.369-4.402,16.043c0,3.137,0.381,6.053,1.146,8.746c0.764,2.695,1.909,5.006,3.438,6.938
			c1.526,1.93,3.356,3.457,5.488,4.584c2.13,1.127,4.603,1.688,7.419,1.688c3.136,0,5.79-0.643,7.961-1.93
			c2.172-1.285,3.96-2.955,5.368-5.006c1.406-2.051,2.413-4.383,3.016-6.996C556.904,67.094,557.206,64.42,557.206,61.684z"/>
	</g>
	<g>
		<path d="M598.92,6.678v86.129h-8.203V6.678H598.92z"/>
		<path d="M641.705,4.867h6.151l-36.792,89.629h-6.393L641.705,4.867z"/>
		<path d="M647.048,32.732c1.688-5.387,4.222-10.15,7.6-14.293c3.377-4.143,7.618-7.438,12.727-9.893
			c5.105-2.451,11.037-3.68,17.792-3.68c6.756,0,12.666,1.229,17.732,3.68c5.066,2.455,9.289,5.75,12.666,9.893
			c3.378,4.143,5.911,8.906,7.6,14.293c1.689,5.391,2.533,11.059,2.533,17.01c0,5.953-0.844,11.621-2.533,17.01
			c-1.688,5.389-4.222,10.133-7.6,14.234c-3.377,4.1-7.6,7.379-12.666,9.83c-5.066,2.453-10.977,3.68-17.732,3.68
			c-6.755,0-12.687-1.227-17.792-3.68c-5.108-2.451-9.35-5.73-12.727-9.83c-3.378-4.102-5.911-8.846-7.6-14.234
			c-1.689-5.389-2.533-11.057-2.533-17.01C644.515,43.791,645.358,38.123,647.048,32.732z M654.587,63.555
			c1.246,4.545,3.176,8.605,5.79,12.184c2.612,3.578,5.972,6.453,10.072,8.625c4.102,2.172,9.006,3.256,14.717,3.256
			c5.71,0,10.595-1.084,14.657-3.256c4.06-2.172,7.397-5.047,10.012-8.625c2.612-3.578,4.543-7.639,5.79-12.184
			c1.246-4.543,1.87-9.148,1.87-13.812c0-4.744-0.624-9.367-1.87-13.873c-1.247-4.502-3.178-8.543-5.79-12.123
			c-2.614-3.576-5.952-6.453-10.012-8.625c-4.062-2.172-8.947-3.256-14.657-3.256c-5.711,0-10.615,1.084-14.717,3.256
			c-4.101,2.172-7.46,5.049-10.072,8.625c-2.614,3.58-4.544,7.621-5.79,12.123c-1.248,4.506-1.87,9.129-1.87,13.873
			C652.717,54.406,653.339,59.012,654.587,63.555z"/>
	</g>
</g>
<path d="M229.298,45.838C215.119,16.707,181.487,0,137.027,0h-0.002c-23.843,0-49.205,5-71.416,14.076
	c-4.535,1.853-8.888,3.849-13.046,5.978L31.994,9.628C31.077,9.163,30,9.126,29.053,9.528L2.13,20.933
	c-0.86,0.364-1.539,1.058-1.884,1.927c-0.344,0.868-0.327,1.838,0.049,2.693l11.794,26.829c-0.475,0.624-0.942,1.25-1.396,1.881
	c-3.457,4.813-3.167,11.318,0.587,15.806L5.777,93.562c-0.362,1.548,0.492,3.123,1.989,3.662l24.8,8.925
	c0.346,0.125,0.704,0.185,1.06,0.185c0.778,0,1.543-0.291,2.132-0.837l14.361-13.342c2.428,0.782,4.775,1.472,6.992,2.078
	c7.929,2.167,16.353,3.889,25.084,5.148l5.224,11.398c1.422,3.103,4.522,5.092,7.936,5.092h61.109c3.215,0,6.17-1.768,7.69-4.599
	l8.695-16.19c3.153-0.857,6.224-1.784,9.184-2.797c10.343-3.537,19.416-8.009,26.968-13.292
	c8.561-5.989,15.242-13.066,19.858-21.035C231.014,54.243,231.177,49.699,229.298,45.838z M221.65,51.132
	c-8.184,8.777-59.909-61.382-191.438-8.776C156.503-31.783,229.833,42.356,221.65,51.132z"/>
<g>
</g>
<g>
</g>
<g>
</g>
<g>
</g>
<g>
</g>
<g>
</g>
</svg>
